<svg width="56" height="56" viewBox="0 0 56 56" fill="none" xmlns="http://www.w3.org/2000/svg">
<circle cx="28" cy="28" r="27" fill="#080808"/>
<circle cx="28" cy="28" r="27.5" stroke="white" stroke-opacity="0.1"/>
<path d="M20.7918 27.9271C21.2612 28.2376 21.68 28.512 21.7305 28.5409C21.7811 28.577 22.2937 27.8694 23.1385 26.6058C23.8606 25.5155 24.4816 24.6201 24.5105 24.6201C24.5466 24.6201 24.5682 28.0788 24.5682 32.3101V40H26.8066V17.0962L25.7019 18.7425C25.0953 19.6523 24.0556 21.1903 23.4057 22.1651C22.7486 23.1399 21.7377 24.6345 21.1601 25.4938C20.5824 26.3458 20.0698 27.1184 20.0265 27.2051C19.947 27.3495 20.0048 27.4 20.7918 27.9271Z" fill="white"/>
<path d="M29.1966 39.87C29.2183 39.8411 30.1425 38.4692 31.2473 36.8229C32.352 35.1766 33.89 32.8877 34.6626 31.7396C35.4352 30.5988 36.0346 29.6384 35.9985 29.6095C34.9298 28.8803 34.2583 28.447 34.2005 28.447C34.1644 28.4542 33.5362 29.3496 32.7997 30.4544L31.4639 32.4545L31.4278 17.0385H29.1894L29.175 28.4831C29.1605 34.7723 29.175 39.8989 29.1966 39.87Z" fill="white"/>
</svg>
